<?xml version="1.0" encoding="utf-8"?>
<!-- Generator: Adobe Illustrator 26.0.2, SVG Export Plug-In . SVG Version: 6.00 Build 0)  -->
<svg version="1.1" id="livetype" xmlns="http://www.w3.org/2000/svg" xmlns:xlink="http://www.w3.org/1999/xlink" x="0px" y="0px"
	 viewBox="0 0 119.7 40" style="enable-background:new 0 0 119.7 40;" xml:space="preserve">
<style type="text/css">
	.st0{fill:#A5A4A5;}
	.st1{fill:#FFFFFF;stroke:#FFFFFF;stroke-width:0.2;stroke-miterlimit:10;}
	.st2{fill:#FFFFFF;}
	.st3{fill:url(#SVGID_1_);}
	.st4{fill:url(#SVGID_00000161589309439977076400000011767710043416379782_);}
	.st5{fill:url(#SVGID_00000052084222259863626470000017842164287587027384_);}
	.st6{fill:url(#SVGID_00000035491568341987526230000014892159802902587323_);}
	.st7{opacity:0.2;enable-background:new    ;}
	.st8{opacity:0.12;enable-background:new    ;}
	.st9{opacity:0.25;fill:#FFFFFF;enable-background:new    ;}
</style>
<path d="M115.2,40H4.5C2,40,0,37.8,0,35V5C0,2.2,2,0,4.5,0h110.8c2.5,0,4.4,2.2,4.4,5v30C119.6,37.8,117.7,40,115.2,40z"/>
<path class="st0" d="M115.2,0.8c2,0,3.7,1.9,3.7,4.2v30c0,2.3-1.7,4.2-3.7,4.2H4.5c-2,0-3.7-1.9-3.7-4.2V5c0-2.3,1.7-4.2,3.7-4.2
	H115.2 M115.2,0H4.5C2,0,0,2.3,0,5v30c0,2.8,1.9,5,4.4,5h110.8c2.5,0,4.4-2.2,4.4-5V5C119.6,2.3,117.7,0,115.2,0z"/>
<path class="st1" d="M42,10.2c0,0.8-0.2,1.5-0.6,2c-0.5,0.6-1.2,0.9-1.9,0.9c-0.8,0-1.4-0.3-1.9-0.9c-0.5-0.6-0.8-1.3-0.8-2.2
	c0-0.9,0.3-1.6,0.8-2.2c0.5-0.6,1.2-0.9,1.9-0.9c0.4,0,0.7,0.1,1.1,0.3c0.4,0.2,0.6,0.4,0.8,0.7l-0.4,0.5c-0.4-0.5-0.8-0.7-1.4-0.7
	c-0.5,0-1.1,0.2-1.4,0.7c-0.4,0.4-0.6,1-0.6,1.7s0.2,1.3,0.6,1.7c0.4,0.4,0.9,0.7,1.4,0.7c0.6,0,1.1-0.2,1.5-0.7
	c0.3-0.3,0.4-0.7,0.4-1.2h-1.9V9.8H42C42,9.8,42,10.2,42,10.2z M46.1,7.7h-2.4v1.9h2.2v0.7h-2.2v1.9h2.4V13H43V7h3.1V7.7z M49,13
	h-0.7V7.7h-1.5V7h3.7v0.7H49V13z M53.1,13V7h0.7v6H53.1z M56.8,13h-0.7V7.7h-1.5V7h3.6v0.7h-1.5L56.8,13L56.8,13z M65.2,12.2
	c-0.5,0.6-1.2,0.9-1.9,0.9c-0.8,0-1.4-0.3-1.9-0.9c-0.5-0.6-0.8-1.3-0.8-2.2c0-0.9,0.3-1.6,0.8-2.2c0.5-0.6,1.2-0.9,1.9-0.9
	c0.8,0,1.4,0.3,1.9,0.9C65.8,8.4,66,9.1,66,10C66,10.9,65.8,11.6,65.2,12.2z M61.9,11.7c0.4,0.4,0.9,0.7,1.4,0.7
	c0.5,0,1.1-0.2,1.4-0.7c0.4-0.4,0.6-1,0.6-1.7c0-0.7-0.2-1.3-0.6-1.7c-0.4-0.4-0.9-0.7-1.4-0.7c-0.5,0-1.1,0.2-1.4,0.7
	c-0.4,0.4-0.6,1-0.6,1.7C61.2,10.7,61.4,11.3,61.9,11.7z M67,13V7h0.8l2.6,4.7V7h0.7v6h-0.7l-2.7-4.9V13C67.6,13,67,13,67,13z"/>
<path class="st2" d="M60.4,21.8c-2.1,0-3.8,1.8-3.8,4.3c0,2.4,1.7,4.3,3.8,4.3c2.1,0,3.8-1.8,3.8-4.3C64.2,23.5,62.5,21.8,60.4,21.8
	z M60.4,28.6c-1.2,0-2.1-1.1-2.1-2.6s1-2.6,2.1-2.6c1.2,0,2.1,1,2.1,2.6C62.5,27.5,61.5,28.6,60.4,28.6z M52.1,21.8
	c-2.1,0-3.8,1.8-3.8,4.3c0,2.4,1.7,4.3,3.8,4.3s3.8-1.8,3.8-4.3C55.9,23.5,54.2,21.8,52.1,21.8z M52.1,28.6C51,28.6,50,27.5,50,26
	s1-2.6,2.1-2.6c1.2,0,2.1,1,2.1,2.6C54.2,27.5,53.3,28.6,52.1,28.6z M42.3,23.1v1.8h3.8c-0.1,1-0.4,1.8-0.9,2.3
	c-0.5,0.6-1.4,1.3-2.9,1.3c-2.4,0-4.2-2.1-4.2-4.8s1.9-4.8,4.2-4.8c1.2,0,2.2,0.6,2.9,1.3l1.2-1.3c-1-1-2.2-1.8-4-1.8
	c-3.2,0-5.9,3-5.9,6.6s2.7,6.6,5.9,6.6c1.8,0,3-0.6,4.1-1.9c1.1-1.2,1.4-2.9,1.4-4.2c0-0.4,0-0.8-0.1-1.1
	C47.8,23.1,42.3,23.1,42.3,23.1z M82.5,24.5c-0.4-1-1.2-2.7-3.2-2.7s-3.5,1.7-3.5,4.3c0,2.4,1.6,4.3,3.7,4.3c1.7,0,2.7-1.2,3.1-1.9
	l-1.2-1c-0.4,0.7-1,1.2-1.9,1.2c-0.9,0-1.4-0.4-1.9-1.3l5.1-2.4C82.7,25,82.5,24.5,82.5,24.5z M77.4,25.9c0-1.6,1.2-2.5,1.9-2.5
	c0.6,0,1.2,0.4,1.4,0.9C80.7,24.3,77.4,25.9,77.4,25.9z M73.2,30h1.7V17.5h-1.7V30z M70.6,22.7c-0.4-0.5-1.2-1-2-1
	c-1.9,0-3.6,1.9-3.6,4.3s1.7,4.2,3.6,4.2c0.9,0,1.6-0.5,1.9-1h0.1v0.6c0,1.6-0.8,2.5-2,2.5c-1,0-1.7-0.8-1.9-1.5l-1.4,0.7
	c0.4,1.1,1.5,2.5,3.4,2.5c1.9,0,3.5-1.3,3.5-4.4V22h-1.6C70.6,22,70.6,22.7,70.6,22.7z M68.6,28.6c-1.2,0-2.1-1.1-2.1-2.6
	s1-2.6,2.1-2.6c1.2,0,2,1.1,2,2.6S69.8,28.6,68.6,28.6z M90.2,17.5h-4V30h1.7v-4.7h2.3c1.9,0,3.6-1.5,3.6-3.9S92.1,17.5,90.2,17.5z
	 M90.3,23.5h-2.4v-4.3h2.4c1.2,0,1.9,1.2,1.9,2.1C92.2,22.4,91.5,23.5,90.3,23.5z M100.5,21.7c-1.2,0-2.5,0.6-2.9,1.9l1.5,0.7
	c0.4-0.7,0.9-0.9,1.5-0.9c0.9,0,1.7,0.6,1.8,1.6v0.1c-0.3-0.2-1-0.5-1.7-0.5c-1.6,0-3.2,1-3.2,2.8c0,1.7,1.3,2.8,2.7,2.8
	c1.2,0,1.7-0.6,2.1-1.2h0.1v1h1.6v-4.8C103.9,23,102.4,21.7,100.5,21.7z M100.3,28.6c-0.5,0-1.3-0.3-1.3-1.1c0-1,1-1.3,1.8-1.3
	c0.7,0,1.1,0.2,1.5,0.4C102.1,27.8,101.2,28.6,100.3,28.6z M109.6,22l-1.9,5.4h-0.1l-1.9-5.4H104l2.9,7.6l-1.7,4.2h1.7l4.5-11.8
	C111.4,22,109.6,22,109.6,22z M94.7,30h1.7V17.5h-1.7V30z"/>
<g>
	
		<linearGradient id="SVGID_1_" gradientUnits="userSpaceOnUse" x1="20.4812" y1="808.7343" x2="3.8309" y2="825.3835" gradientTransform="matrix(1 0 0 1 0 -799.8898)">
		<stop  offset="0" style="stop-color:#4595D1"/>
		<stop  offset="7.000001e-03" style="stop-color:#4496D2"/>
		<stop  offset="0.26" style="stop-color:#3DB7EA"/>
		<stop  offset="0.512" style="stop-color:#48C0EC"/>
		<stop  offset="0.76" style="stop-color:#5BC2E5"/>
		<stop  offset="1" style="stop-color:#5FC3E4"/>
	</linearGradient>
	<path class="st3" d="M9.2,7.5C9,7.8,8.9,8.3,8.9,8.9V31c0,0.6,0.2,1.1,0.4,1.4l0.1,0.1l11-12.4v-0.2L9.2,7.5z"/>
	
		<linearGradient id="SVGID_00000116229850369260613650000007561820151646686613_" gradientUnits="userSpaceOnUse" x1="30.001" y1="819.9398" x2="8.5603" y2="819.9398" gradientTransform="matrix(1 0 0 1 0 -799.8898)">
		<stop  offset="0" style="stop-color:#FFDF05"/>
		<stop  offset="0.409" style="stop-color:#FABB0C"/>
		<stop  offset="0.775" style="stop-color:#F5A216"/>
		<stop  offset="1" style="stop-color:#F4991A"/>
	</linearGradient>
	<path style="fill:url(#SVGID_00000116229850369260613650000007561820151646686613_);" d="M23.9,24.3l-3.6-4.1v-0.3l3.6-4.1l0.1,0.1
		l4.3,2.8c1.2,0.8,1.2,2.1,0,2.9L23.9,24.3z"/>
	
		<linearGradient id="SVGID_00000114037583648746450380000015824628222922864535_" gradientUnits="userSpaceOnUse" x1="22.1181" y1="822.0433" x2="0.662" y2="843.4995" gradientTransform="matrix(1 0 0 1 0 -799.8898)">
		<stop  offset="0" style="stop-color:#E73F49"/>
		<stop  offset="1" style="stop-color:#C20F62"/>
	</linearGradient>
	<path style="fill:url(#SVGID_00000114037583648746450380000015824628222922864535_);" d="M24,24.2L20.3,20L9.2,32.5
		c0.4,0.5,1.1,0.5,1.9,0.1L24,24.2"/>
	
		<linearGradient id="SVGID_00000119833388803890349960000005203761459202661309_" gradientUnits="userSpaceOnUse" x1="5.5955" y1="801.2137" x2="15.175" y2="810.7932" gradientTransform="matrix(1 0 0 1 0 -799.8898)">
		<stop  offset="0" style="stop-color:#319F71"/>
		<stop  offset="6.900000e-02" style="stop-color:#2BA671"/>
		<stop  offset="0.476" style="stop-color:#4EB16F"/>
		<stop  offset="0.801" style="stop-color:#60B468"/>
		<stop  offset="1" style="stop-color:#63B563"/>
	</linearGradient>
	<path style="fill:url(#SVGID_00000119833388803890349960000005203761459202661309_);" d="M24,15.8L11.1,7.5C10.3,7,9.7,7.1,9.2,7.6
		L20.3,20C20.3,20,24,15.8,24,15.8z"/>
	<path class="st7" d="M23.9,24.1l-12.8,8.2c-0.7,0.5-1.3,0.4-1.8,0l-0.1,0.1l0.1,0.1c0.4,0.4,1.1,0.5,1.8,0L23.9,24.1z"/>
	<path class="st8" d="M9.2,32.3C9,32,8.9,31.5,8.9,30.9V31C8.9,31.6,9.1,32.1,9.2,32.3L9.2,32.3C9.3,32.3,9.2,32.3,9.2,32.3z
		 M28.4,21.3l-4.4,2.8l0.1,0.1L28.4,21.3c0.6-0.3,0.9-0.8,0.9-1.3C29.3,20.5,28.9,20.9,28.4,21.3z"/>
	<path class="st9" d="M11.1,7.6l17.3,11.1c0.5,0.4,0.9,0.8,0.9,1.3c0-0.5-0.3-1-0.9-1.4L11.1,7.6C9.9,6.7,8.9,7.3,8.9,8.9V9
		C8.9,7.5,9.9,6.8,11.1,7.6z"/>
</g>
</svg>
