<?xml version="1.0" encoding="utf-8"?>
<!-- Generator: Adobe Illustrator 26.0.2, SVG Export Plug-In . SVG Version: 6.00 Build 0)  -->
<svg version="1.1" id="Layer_1" xmlns="http://www.w3.org/2000/svg" xmlns:xlink="http://www.w3.org/1999/xlink" x="0px" y="0px"
	 viewBox="0 0 595.28 841.89" style="enable-background:new 0 0 595.28 841.89;" xml:space="preserve">
<style type="text/css">
	.st0{fill:#534A2A;}
</style>
<g>
	<g>
		<path class="st0" d="M339.66,113.57c-34.43,1.99-68.86,3.98-103.29,5.96c-17.21,0.99-34.43,1.99-51.64,2.98
			c-15.51,0.9-31.12,1.35-46.56,3.19c-18.2,2.17-35.02,5.65-51.56,13.86c-15.29,7.59-27.42,19.75-37.14,33.57
			c-17.11,24.35-22.41,55.32-25.44,84.24c-3.32,31.74-3.92,63.91-4.88,95.79c-1.04,34.51-1.47,69.03-1.28,103.55
			c0.19,34.2,0.97,68.39,2.37,102.56c1.38,33.82,4.09,70.69,24.2,99.35c11.8,16.83,26.31,28.56,45.47,36.11
			c15.55,6.13,32.88,7.22,49.4,8.42c34.39,2.51,68.83,4.24,103.29,5.2c34.12,0.95,68.26,1.14,102.39,0.58
			c33.31-0.55,66.85-1.15,100.06-3.97c33.03-2.81,67.24-11.37,88.98-38.49c19.09-23.81,28.01-52.47,32.48-82.29
			c10.17-67.82,13.81-136.99,13-205.52c-0.73-62.3-2.61-129.72-34.4-185.23c-29.19-50.97-85.94-84.68-145.11-82.99
			c-14.07,0.4-28.43,2.62-41.82,6.99c-14.89,4.86-26.11,20.98-20.95,36.9c4.81,14.87,20.93,26.17,36.9,20.95
			c6.72-2.2,13.56-3.79,20.56-4.81c-2.66,0.36-5.32,0.71-7.98,1.07c11.19-1.5,22.43-1.47,33.63-0.03c-2.66-0.36-5.32-0.71-7.98-1.07
			c11.74,1.64,23.12,4.78,34.07,9.33c-2.39-1.01-4.78-2.02-7.17-3.02c7.68,3.29,15.07,7.2,22.05,11.8c1.8,1.19,3.56,2.45,5.32,3.7
			c3.25,2.31-2.25-1.67-2.62-2.08c0.61,0.68,1.54,1.22,2.26,1.8c3.37,2.75,6.6,5.67,9.68,8.74c2.93,2.92,5.72,5.98,8.36,9.17
			c0.62,0.75,1.23,1.53,1.85,2.28c2.1,2.56-4.74-6.5-1.57-1.97c1.22,1.74,2.45,3.46,3.62,5.23c5.38,8.13,9.88,16.78,13.74,25.72
			c-1.01-2.39-2.02-4.78-3.02-7.17c8.59,20.39,13.51,41.99,16.55,63.85c-0.36-2.66-0.71-5.32-1.07-7.98
			c4.6,34.26,5.17,69.08,5.21,103.6c0.04,37.78-1.46,75.56-4.51,113.22c-1.7,20.97-3.79,41.92-6.55,62.78
			c0.36-2.66,0.71-5.32,1.07-7.98c-2.5,18.45-5.95,36.92-13.15,54.18c1.01-2.39,2.02-4.78,3.02-7.17
			c-1.91,4.43-4.03,8.76-6.52,12.89c-1.1,1.83-2.27,3.61-3.5,5.36c-2.95,4.16,1.41-1.09,1.71-2.12c-0.26,0.9-1.68,2.01-2.29,2.69
			c-1.41,1.58-2.89,3.11-4.43,4.56c-0.87,0.81-1.78,1.56-2.66,2.36c-2.48,2.27,6.07-4.18,1.82-1.39c-4.48,2.95-8.97,5.56-13.91,7.7
			c2.39-1.01,4.78-2.02,7.17-3.02c-9.42,3.87-19.28,6.05-29.35,7.42c2.66-0.36,5.32-0.71,7.98-1.07
			c-20.44,2.61-41.25,2.98-61.82,3.76c-22.18,0.84-44.38,1.35-66.58,1.55c-44.74,0.39-89.49-0.52-134.18-2.72
			c-24.06-1.19-48.43-1.94-72.34-5.04c2.66,0.36,5.32,0.71,7.98,1.07c-8.34-1.17-16.45-2.98-24.24-6.23
			c2.39,1.01,4.78,2.02,7.17,3.02c-4.05-1.82-7.49-4.41-11.36-6.46c4.05,3.21,4.9,3.84,2.55,1.89c-0.76-0.66-1.5-1.33-2.23-2.02
			c-1.46-1.39-2.85-2.85-4.18-4.37c-0.67-0.77-1.32-1.55-1.95-2.34c3.1,4.08,3.74,4.88,1.94,2.39c-1.12-1.73-2.29-3.42-3.35-5.19
			c-2.13-3.59-3.95-7.33-5.61-11.16c1.01,2.39,2.02,4.78,3.02,7.17c-4.49-10.88-7.06-22.29-8.66-33.93
			c0.36,2.66,0.71,5.32,1.07,7.98c-2.86-22.41-3.01-45.21-3.67-67.77c-0.68-23.23-1.07-46.47-1.19-69.71
			c-0.24-46.14,0.63-92.28,2.59-138.38c0.97-22.75,1.63-45.65,4.56-68.25c-0.36,2.66-0.71,5.32-1.07,7.98
			c1.98-14.68,5.05-29.23,10.68-42.99c-1.01,2.39-2.02,4.78-3.02,7.17c1.84-4.33,3.88-8.56,6.29-12.59c1.07-1.79,2.2-3.53,3.39-5.24
			c2.94-4.18-1.55,1.27-1.79,2.2c0.23-0.87,1.65-1.99,2.22-2.64c1.37-1.56,2.81-3.06,4.31-4.49c0.84-0.8,1.7-1.58,2.58-2.33
			c3.63-3.12-1.19,0.48-2.05,1.48c3.09-3.61,9.73-6.07,13.97-7.96c-2.39,1.01-4.78,2.02-7.17,3.02c9.47-3.99,19.41-6.24,29.56-7.67
			c-2.66,0.36-5.32,0.71-7.98,1.07c15.84-2.08,31.87-2.57,47.81-3.49c17.21-0.99,34.43-1.99,51.64-2.98
			c35.09-2.03,70.18-4.05,105.27-6.08c15.64-0.9,30.75-13.15,30-30C368.97,128.09,356.44,112.6,339.66,113.57L339.66,113.57z"/>
	</g>
</g>
<g>
	<g>
		<path class="st0" d="M314.55,245.34c-34.61-4.08-71.38,6.12-100.49,24.87c-32.08,20.66-56.12,50.62-69.3,86.39
			c-12.17,33.04-12.07,71.06-2.93,104.82c9.02,33.35,27.84,66.1,54.83,88.1c29.4,23.96,65.58,37.24,103.7,36.79
			c38.13-0.45,74.21-14.05,103.54-38.2c27.07-22.29,45.52-55.9,53.22-89.83c7.82-34.41,6.92-72.35-6.26-105.37
			c-7.41-18.58-16.94-34.82-30.02-50.03c-11.27-13.1-25.27-24.39-40.09-33.22c-29.22-17.42-65.22-26.77-99.22-22.75
			c-9.5,1.12-18.82,2.56-27.99,5.31c-15.02,4.5-26.02,21.24-20.95,36.9c4.91,15.18,20.8,25.78,36.9,20.95
			c6.12-1.84,12.33-3.18,18.66-4.06c-2.66,0.36-5.32,0.71-7.98,1.07c10.84-1.38,21.73-1.34,32.57,0.01
			c-2.66-0.36-5.32-0.71-7.98-1.07c12.28,1.66,24.19,4.95,35.61,9.73c-2.39-1.01-4.78-2.02-7.17-3.02
			c7.63,3.28,14.99,7.15,21.95,11.69c1.75,1.14,3.46,2.31,5.16,3.53c0.85,0.61,2.13,1.23,2.8,2.06c-0.24-0.3-5.88-4.67-2.78-2.13
			c3.42,2.81,6.75,5.69,9.92,8.78c3.01,2.93,5.88,6,8.6,9.2c0.61,0.71,1.21,1.43,1.8,2.16c3.11,3.82-1.09-1.03-1.65-2.2
			c0.86,1.78,2.58,3.52,3.7,5.16c4.95,7.26,9.09,15,12.51,23.09c-1.01-2.39-2.02-4.78-3.02-7.17c4.73,11.49,7.88,23.46,9.61,35.76
			c-0.36-2.66-0.71-5.32-1.07-7.98c1.8,13.81,1.77,27.71,0,41.52c0.36-2.66,0.71-5.32,1.07-7.98c-1.89,13.73-5.47,27.11-10.81,39.9
			c1.01-2.39,2.02-4.78,3.02-7.17c-3.16,7.37-6.84,14.49-11.16,21.25c-1.14,1.78-2.32,3.52-3.53,5.24
			c-0.54,0.76-1.11,1.51-1.65,2.27c-2.02,2.89,4.37-5.45,2.13-2.73c-2.68,3.25-5.37,6.45-8.3,9.47c-2.83,2.92-5.81,5.69-8.92,8.31
			c-0.74,0.62-1.49,1.22-2.23,1.83c-3.12,2.57,2.18-1.91,2.66-2.05c-1.75,0.52-3.73,2.7-5.27,3.73
			c-6.93,4.64-14.31,8.53-21.99,11.78c2.39-1.01,4.78-2.02,7.17-3.02c-11,4.52-22.46,7.57-34.24,9.19c2.66-0.36,5.32-0.71,7.98-1.07
			c-11.79,1.49-23.63,1.52-35.42,0.04c2.66,0.36,5.32,0.71,7.98,1.07c-11.79-1.6-23.24-4.68-34.21-9.29
			c2.39,1.01,4.78,2.02,7.17,3.02c-7.7-3.34-15.06-7.35-21.95-12.16c-0.95-0.67-1.89-1.36-2.84-2.04c-3.23-2.3,2.49,1.82,2.78,2.16
			c-1.26-1.52-3.28-2.69-4.77-4c-3.12-2.75-6.11-5.65-8.95-8.69c-2.67-2.86-4.93-6.25-7.7-8.98c0.94,0.93,4.62,6.12,1.74,2.17
			c-0.55-0.75-1.09-1.51-1.63-2.28c-1.21-1.72-2.38-3.47-3.5-5.25c-4.55-7.15-8.44-14.69-11.77-22.48c1.01,2.39,2.02,4.78,3.02,7.17
			c-5.3-12.74-8.95-26.02-10.91-39.68c0.36,2.66,0.71,5.32,1.07,7.98c-1.83-13.67-1.92-27.44-0.1-41.12
			c-0.36,2.66-0.71,5.32-1.07,7.98c1.7-11.83,4.81-23.3,9.44-34.32c-1.01,2.39-2.02,4.78-3.02,7.17c3.45-7.97,7.59-15.6,12.47-22.79
			c1.21-1.78,2.49-3.52,3.76-5.26c2.09-2.89-4.69,5.84-1.61,2.11c0.61-0.74,1.21-1.48,1.82-2.21c2.91-3.47,6-6.79,9.23-9.96
			c3.05-3,6.24-5.85,9.55-8.56c0.88-0.72,3.8-2.99-0.25,0.13c-4.26,3.27-0.64,0.5,0.36-0.23c1.72-1.26,3.46-2.47,5.23-3.65
			c7.26-4.83,14.94-8.95,22.94-12.39c-2.39,1.01-4.78,2.02-7.17,3.02c10.78-4.52,22-7.68,33.58-9.31c-2.66,0.36-5.32,0.71-7.98,1.07
			c10.18-1.32,20.4-1.43,30.6-0.23c7.11,0.84,16.38-3.95,21.21-8.79c5.2-5.2,9.12-13.74,8.79-21.21c-0.35-7.76-2.9-15.81-8.79-21.21
			C329.52,248.4,322.91,246.32,314.55,245.34L314.55,245.34z"/>
	</g>
</g>
<g>
	<g>
		<path class="st0" d="M434.16,287.99c13.46,0,27.6-5.86,37.12-15.38c9.11-9.11,15.96-24.05,15.38-37.12
			c-0.61-13.58-5.07-27.66-15.38-37.12c-10.27-9.43-22.9-15.38-37.12-15.38c-13.46,0-27.6,5.86-37.12,15.38
			c-9.11,9.11-15.96,24.05-15.38,37.12c0.61,13.58,5.07,27.66,15.38,37.12C407.31,282.04,419.94,287.99,434.16,287.99L434.16,287.99
			z"/>
	</g>
</g>
</svg>
