<svg id="Layer_1" data-name="Layer 1" xmlns="http://www.w3.org/2000/svg" viewBox="0 0 1491 1122.52"><defs><style>.cls-1{fill:none;}.cls-2{fill:#00ffea;}.cls-3{fill:#ff00eb;}.cls-4{fill:#534a2a;fill-rule:evenodd;}</style></defs><line class="cls-1" x1="1143.08" x2="1143.08" y2="1122.52"/><g id="g14"><g id="g20"><path id="path22" class="cls-2" d="M610.41,589.87A12.21,12.21,0,0,1,598.22,581a16.88,16.88,0,0,1-.57-5.51,13.67,13.67,0,0,1,.5-3.15c.07-.32.14-.62.2-.93.14-.68.28-1.34.43-2a31.75,31.75,0,0,0,.7-3.78,65.21,65.21,0,0,0,.26-7.53,11.76,11.76,0,0,0-2.58-7c-.28-.36-.56-.73-.83-1.12a18.6,18.6,0,0,0-1.23-1.58c-3.82-4.2-5.18-9.34-4.15-15.73a30.84,30.84,0,0,1,.75-3.2l.17-.61c1.69-6.37,6-10.37,12.75-11.89a17.67,17.67,0,0,0,7.69-3.72,16.29,16.29,0,0,1,2.27-1.65,180.11,180.11,0,0,1,19.78-9.42l5.54-2.39a19.36,19.36,0,0,1,11.77-.94,64.65,64.65,0,0,1,29.11,14.58,13.29,13.29,0,0,1,4.61,7.77c.29,1.65.54,3.3.78,4.85l.29,1.88a3.36,3.36,0,0,1,0,1.14l-1.64,9.52a17,17,0,0,1,1.35,18.75c-3.47,6.15-10.3,9.67-18.74,9.67a28,28,0,0,1-3.44-.21c-6.1,4.09-12.29,7.82-18.43,11.11-.89.47-1.84.88-2.78,1.29a18.69,18.69,0,0,0-2.4,1.16c-7.18,4.52-15.28,6.48-23.12,8.39l-2.67.65a17.38,17.38,0,0,1-4.17.52" transform="translate(-214.7 -21.66)"/></g><g id="g24"><path id="path26" class="cls-3" d="M989.82,598.63a14.56,14.56,0,0,1-8.13-2.4,10.34,10.34,0,0,1-3.34-13.9l4.63,1.53-4.48-1.79a13.14,13.14,0,0,1,1.65-2.38,163.07,163.07,0,0,1,19-18.48,55.27,55.27,0,0,1,11.12-7,32.55,32.55,0,0,1,14.21-3.09h.67a35.24,35.24,0,0,1,19.47,6.08,14.66,14.66,0,0,1,2.76,2.33,10.49,10.49,0,0,1,2.79,10,12.37,12.37,0,0,1-7.29,8.18,33,33,0,0,1-5.62,1.85c-1.25.27-2.45.43-3.61.57-.75.09-1.33.16-1.84.26a70.08,70.08,0,0,0-14.45,4.26l-4.13,2.54-5.63,3.22c-2.28,1.64-4.58,3.13-6.57,4.41a26.74,26.74,0,0,1-5.62,2.8,17.24,17.24,0,0,1-5.56,1" transform="translate(-214.7 -21.66)"/></g><g id="g28"><path id="path30" class="cls-4" d="M667.14,525.37c-.32-2-.66-4.35-1.06-6.67a9.34,9.34,0,0,0-3.26-5.47,59.2,59.2,0,0,0-26.77-13.45,13.52,13.52,0,0,0-8.26.59c-8.37,3.68-17,7-24.78,11.55a11.35,11.35,0,0,0-1.59,1.16,23.11,23.11,0,0,1-9.93,4.81c-5.41,1.21-8,4.44-9.19,8.77a35,35,0,0,0-.84,3.47c-.73,4.52-.29,8.84,3.17,12.63.85.94,1.53,2,2.29,3a15.38,15.38,0,0,1,3.38,9.18,68,68,0,0,1-.29,8,61.47,61.47,0,0,1-1.17,6.11,22.61,22.61,0,0,0-.64,3.5,13.78,13.78,0,0,0,.42,4.39c1.57,5.08,5.59,6.56,10.16,5.43,8.4-2.08,17-3.83,24.21-8.38,1.67-1,3.71-1.68,5.48-2.63a215.82,215.82,0,0,0,25.29-15.92,47.64,47.64,0,0,0,5.15-4.43,17.32,17.32,0,0,0,5.44-9.44c.92-5.25,1.82-10.5,2.79-16.13m75-16.18A25.08,25.08,0,0,1,737,524.71c-4.92,6.82-9.74,13.69-14.18,20.73-8.89,14.11-21.1,25.73-36.29,35.19-13.58,8.45-27.74,16.13-43.22,22a111.12,111.12,0,0,0-18.38,8.62,62.08,62.08,0,0,1-10.3,4.43,20.64,20.64,0,0,0-4.53,2.19c-2.6,1.83-3.81,4.23-3,7.11q2,6.88,4.12,13.72a51.8,51.8,0,0,1,1.95,15.82c0,5.62,0,11.23,0,16.84,0,5,0,10,1.14,15s-.6,9.33-4.26,13.23c-.65.69-1.28,1.4-2,2.07a23.63,23.63,0,0,0-6.93,10.77c-1.65,5.88-6.59,9.58-12.7,12.31a6.66,6.66,0,0,1-6.84-.74,9.62,9.62,0,0,1-4.21-6,36.18,36.18,0,0,1-.62-5.29c-.57-9.48-2.9-18.71-5.32-27.94a35.16,35.16,0,0,0-3.85-9.16c-4.07-6.82-5-14.07-4.56-21.54.13-2.36.49-4.72.44-7.08a64.15,64.15,0,0,0-.78-7.92c-.4-2.49-2.1-4.37-4.72-5.56-1.53-.69-3.26-1.09-4.79-1.79a16.92,16.92,0,0,1-3.41-2,4.42,4.42,0,0,1-1-6.44,34.87,34.87,0,0,1,2.45-2.88c1.09-1.15,2.28-2.24,3.44-3.36,2.73-2.62,3.74-5.63,2.83-9.06-1.47-5.45-2.55-11-5.32-16.18a25.57,25.57,0,0,1-3-14.67,31.72,31.72,0,0,0-.5-7.06c-1.27-8.77-3.3-17.49-3.13-26.4a18,18,0,0,0-1.76-7.79c-3.08-6.77-2.15-13.27,1.54-19.72a59.27,59.27,0,0,0,4.18-9.06,20.92,20.92,0,0,1,7.27-9.59,115.26,115.26,0,0,1,12.29-8.34,104.17,104.17,0,0,0,19.41-13.56,62.29,62.29,0,0,1,22.41-12.92c4.89-1.67,9.63-3.6,14.43-5.43a133.07,133.07,0,0,1,18.94-5.44,29.5,29.5,0,0,1,13.54.14,20.65,20.65,0,0,0,2,.55A52,52,0,0,1,687.07,465a51.63,51.63,0,0,0,12.77,7.76c4.94,2.26,9.8,4.64,14.66,7a95.54,95.54,0,0,1,19,12.55c.25.22.49.42.74.62,5.7,4.54,8.67,10,7.84,16.24" transform="translate(-214.7 -21.66)"/></g><g id="g32"><path id="path34" class="cls-4" d="M888.08,513a15.42,15.42,0,0,1-5.22,11.3,80.74,80.74,0,0,1-7.72,6c-2.11,1.55-4.43,2.92-6.49,4.51-3.48,2.67-5.95,5.88-6,10-.07,5.35-2.83,9.58-7.09,13.37-4.1,3.65-8.09,7.39-11.88,11.26a84.32,84.32,0,0,0-8,9.31c-6,8.33-7.86,17.58-7.42,27.18a54.31,54.31,0,0,0,1.26,10.56,46.81,46.81,0,0,1,1.28,14.07,32.74,32.74,0,0,0,3.58,17.26,46.68,46.68,0,0,1,4.79,15.35,46.12,46.12,0,0,0,4.3,13.63c.52,1.09,1,2.2,1.58,3.28a15.37,15.37,0,0,1,.71,13.77c-1.17,2.78-1.93,5.67-3.11,8.44a15.36,15.36,0,0,1-2.55,3.82,6.75,6.75,0,0,1-5.42,2.3,39.39,39.39,0,0,1-6.24-.62c-2-.37-4-1.13-6-1.52a13.72,13.72,0,0,0-7.22.6c-1.93.72-3.73,1.69-5.67,2.35-8.28,2.81-16.68-.78-18.74-8.16-1.44-5.16-2.61-10.4-3.58-15.63a12.86,12.86,0,0,1,.36-6.13c1.58-5,.89-9.88.28-14.91-1.54-12.63-4.07-25.11-6.83-37.57a47.25,47.25,0,0,1-.63-7c-.23-3.53-.26-7.08-.63-10.61-1.81-16.9,4.31-32,15.09-46a95.87,95.87,0,0,1,7-7.75,109.84,109.84,0,0,0,15-19.18c1.59-2.62,3.4-5.15,5.22-7.67a35.1,35.1,0,0,1,11.57-10.15c.87-.49,1.72-1,2.62-1.47,7.62-3.87,14.18-8.63,19-15a25,25,0,0,1,4.89-4.6,19.9,19.9,0,0,1,8.27-3.71c7.74-1.55,14.41.66,17.13,8.15,1.33,3.64,2.73,7.35,2.53,11.26" transform="translate(-214.7 -21.66)"/></g><g id="g36"><path id="path38" class="cls-4" d="M476.17,788.92c.11,4.84-2.35,7.59-6.29,9.38a25.75,25.75,0,0,1-6,1.6,50.06,50.06,0,0,1-5.23.52c-5.17.43-9.41,2.24-12.35,5.94-.39.49-.79,1-1.19,1.46a16.48,16.48,0,0,1-8,5.52c-6.23,1.9-10.61,5.7-14.12,10.22a104.71,104.71,0,0,0-6.89,9.92,125,125,0,0,1-13.27,18c-6.73,7.56-13.33,15.19-20,22.81a62.12,62.12,0,0,1-17.66,13.79c-5.91,3.17-11.81,6.39-17.94,9.26a92,92,0,0,0-17.85,10.87,76.49,76.49,0,0,1-11.59,7.61c-13.18,6.94-24.57,15.72-36.26,24.2a90.84,90.84,0,0,0-8.62,7.75c-4.68,4.39-9.15,8.94-14,13.24-4.6,4.12-8.8,8.41-11.25,13.75a16.59,16.59,0,0,1-4.56,5.9,11.82,11.82,0,0,1-11.66,1.9c-3.83-1.47-7.55-3.13-11.3-4.72a25.18,25.18,0,0,1-2.72-1.3,5.46,5.46,0,0,1-1.48-1.25c-1-1.25-1.85-2.63-.95-4.11,4.72-7.76,10.48-14.71,20.62-18.11a36.33,36.33,0,0,0,12.74-7.67c5-4.52,10.12-9,15.14-13.55a142.92,142.92,0,0,1,17.91-13.67c4.15-2.72,8-5.72,12-8.58,3.47-2.49,6.82-5.11,10.46-7.41a67.6,67.6,0,0,0,12.2-9.72,88.27,88.27,0,0,1,13.52-11.12,101.09,101.09,0,0,0,9.9-7.93C349.93,864.2,360.17,854.88,371,846c11-9.1,21.6-18.57,32.44-27.82,5.25-4.5,9.42-9.46,11.48-15.62a29.66,29.66,0,0,1,10.31-14.17c4.84-3.74,10.22-6.2,17-5.77a35.57,35.57,0,0,0,12.41-1.51,45.28,45.28,0,0,1,7.17-1.43c4.87-.61,10.95,2.08,13.19,5.85a14.08,14.08,0,0,1,1.18,3.41" transform="translate(-214.7 -21.66)"/></g><g id="g40"><path id="path42" class="cls-4" d="M1107.3,232c.6-3.35,1.27-7.44,2.07-11.52,1-5.23,2.17-10.44,3.2-15.67a15.08,15.08,0,0,0-.81-8.74c-2.14-5.24-1.42-10.31.61-15.57,6.42-16.55,11.85-33.33,16.62-50.27.49-1.72.81-3.47,1.24-5.2a127.22,127.22,0,0,1,5.22-16.2c4-10.06,8-20.14,9.54-30.75a13.77,13.77,0,0,1,5.07-8.56c2.44-2.11,5.1-4.07,7.43-6.26,1.85-1.76,3.3-3.82,5-5.66a46.45,46.45,0,0,1,4.25-3.9,3.77,3.77,0,0,1,3.84-.74,3.93,3.93,0,0,1,2.84,3.44A16.06,16.06,0,0,1,1173,59c-.54,3.92,2.29,7,6.94,7.26,2.79.18,5.61,0,8.42.12a7.87,7.87,0,0,1,7.57,5.22,10.58,10.58,0,0,1-1.43,9.41,56.16,56.16,0,0,1-4.08,5.15c-8.8,10.81-15.57,22.34-18.51,35.35-1,4.32-2.91,8.49-4.24,12.76a160,160,0,0,1-7,18.55,129,129,0,0,0-4.85,13.53c-1.83,5.69-3.22,11.49-5.21,17.14a100.27,100.27,0,0,0-5.27,24.31,29.9,29.9,0,0,1-.46,3.53c-.83,3.74-3.4,6.45-7.51,8a50.22,50.22,0,0,1-6,1.45c-5.09,1.22-7.46,3.83-7.62,8.37-.09,2.65,0,5.31-.22,8-.17,2.16-1.57,3.87-3.37,5.35a7,7,0,0,1-7.72.46,9.6,9.6,0,0,1-4.8-6.61,39.94,39.94,0,0,1-.29-4.29" transform="translate(-214.7 -21.66)"/></g><g id="g44"><path id="path46" class="cls-4" d="M658.73,76.93a15.92,15.92,0,0,1,4.26.94c5.45,2.68,11.14,5.17,16,8.46C691.37,94.65,703.09,103.56,713,114A63.58,63.58,0,0,1,723,127.48c1.58,3,3.24,5.89,5.05,8.76a89.31,89.31,0,0,1,12.77,32.61,52.72,52.72,0,0,0,5.75,16c1.74,3.24,3.54,6.43,5.31,9.64s3,6.65,2.64,10.27c-.69,6.7,1.13,12.83,5.25,18.6,2.36,3.31,3.36,7.11,4.4,10.85a6.61,6.61,0,0,1-1.12,6,26.11,26.11,0,0,1-4.52,4.83c-6.22,4.84-12.78,4.85-18.51-.38A122,122,0,0,1,728.54,232a15.37,15.37,0,0,1-2.51-5.77,103.5,103.5,0,0,0-7.7-19.26c-2.08-4-4.82-7.87-6.71-12s-3-8.47-4.65-12.65a63.68,63.68,0,0,0-4-8.17c-6.78-11.66-12.36-23.78-19.42-35.34-4.16-6.81-7.73-13.88-11.7-20.79-1.67-2.91-3.68-5.69-5.54-8.53a33.14,33.14,0,0,0-10.09-10.09,27.43,27.43,0,0,1-3.15-2.35,11.85,11.85,0,0,1-.61-17.75c1.41-1.4,3.22-2.27,6.28-2.43" transform="translate(-214.7 -21.66)"/></g><g id="g48"><path id="path50" class="cls-4" d="M1180.46,833a16.32,16.32,0,0,1,4.26.94c5.45,2.69,11.14,5.17,16,8.46,12.34,8.33,24.07,17.23,34,27.72a63.47,63.47,0,0,1,10.07,13.43c1.59,3,3.23,5.9,5,8.76A89.25,89.25,0,0,1,1262.59,925a52.48,52.48,0,0,0,5.75,16c1.75,3.22,3.54,6.43,5.32,9.64s3,6.65,2.64,10.27a26.38,26.38,0,0,0,5.24,18.59c2.36,3.32,3.36,7.12,4.4,10.86a6.61,6.61,0,0,1-1.12,6,25.78,25.78,0,0,1-4.52,4.83c-6.22,4.82-12.78,4.84-18.51-.38a123.12,123.12,0,0,1-11.53-12.6,15.4,15.4,0,0,1-2.49-5.77,104.24,104.24,0,0,0-7.71-19.26c-2.07-4-4.82-7.88-6.72-12s-3-8.47-4.64-12.65a65.11,65.11,0,0,0-4-8.18c-6.77-11.66-12.36-23.77-19.42-35.33-4.16-6.82-7.72-13.88-11.69-20.79-1.67-2.91-3.69-5.69-5.55-8.53a33.39,33.39,0,0,0-10.09-10.1,27.36,27.36,0,0,1-3.15-2.34,11.87,11.87,0,0,1-.61-17.76c1.41-1.4,3.22-2.26,6.28-2.43" transform="translate(-214.7 -21.66)"/></g><g id="g52"><path id="path54" class="cls-4" d="M1509.66,908.49c-2.07.14-4.17.31-6.27.42a16.86,16.86,0,0,1-15-6.64,29.62,29.62,0,0,1-3-4.66,42.55,42.55,0,0,0-15.87-17.29,22.52,22.52,0,0,1-9.66-11.32c-1.74-4.56-4.81-8.49-8.37-12.17-5.54-5.72-11-11.52-16.67-17.11a47.69,47.69,0,0,1-10.74-15.07,69.89,69.89,0,0,0-4.21-8.09,14.79,14.79,0,0,0-3.29-3.38,6.39,6.39,0,0,0-5.92-.65c-1.8.9-3.51,1.92-5.25,2.9-1.17.65-2.29,1.39-3.51,2a6.64,6.64,0,0,1-6,0c-2.17-1.17-3.61-2.92-3.45-5.16a45.15,45.15,0,0,1,1.08-5.19c.9-4.7,1.19-9.36-1-13.94a15.8,15.8,0,0,1-1.22-4.29,9.76,9.76,0,0,1,2.69-9.14c.68-.67,1.31-1.39,2-2,3-2.84,4.65-5.88,2.58-9.7a6.88,6.88,0,0,1-.57-2.59,6.32,6.32,0,0,1,2.37-5.64,9.79,9.79,0,0,1,10.53-1.76,16.9,16.9,0,0,1,4.33,2.45c3.68,3.15,7.36,6.33,10.68,9.74a99.36,99.36,0,0,1,7.83,9.41c4.9,6.46,10,12.81,14.78,19.32,8.45,11.54,17,23.07,23,35.71a47.64,47.64,0,0,0,9.3,12.72q7.35,7.53,14.18,15.38c6.83,7.87,14.16,15.39,21.65,22.81,2.93,2.92,5.58,6,8.21,9.16a11,11,0,0,1,2.49,6.67c.19,3.2-2.58,7.56-8.28,7.58-3.14,0-6.3-.26-9.48-.42" transform="translate(-214.7 -21.66)"/></g><g id="g56"><path id="path58" class="cls-4" d="M1675.18,275.23c4.8.13,7.82,2.36,8.48,5.45.36,1.73.52,3.49.94,5.2.28,1.09,2.94,2.47,4.21,2.24,2-.37,4.06-.93,6.11-1.27,4.61-.78,10,2.55,10.72,6.68a5.38,5.38,0,0,1-.32,2.59,12.7,12.7,0,0,1-4.59,5.83,42.13,42.13,0,0,1-10.54,5.78c-16.57,6.47-32.61,13.79-48.51,21.32a47.63,47.63,0,0,0-4.51,2.29,96.61,96.61,0,0,1-18.35,8.61,55.66,55.66,0,0,0-13.44,6.93,61.41,61.41,0,0,1-21.25,9.38c-5.72,1.36-11.13,3.62-16.7,5.42s-11.11,3.66-16.78,5.22c-7.54,2.08-13.59-.44-15.6-6.65a34.15,34.15,0,0,0-6.29-12.05,8.57,8.57,0,0,1-1.31-2.41,4.12,4.12,0,0,1,.52-4.26,28,28,0,0,1,4.75-4.66,30.68,30.68,0,0,1,13.17-5.32c7.31-1.32,14-3.91,20.6-6.63s13.23-5.45,20-8a179.15,179.15,0,0,0,22.94-10.83,155.12,155.12,0,0,1,17.38-8.32,139.49,139.49,0,0,0,15.51-7.49c7.36-4,14.85-7.88,22.31-11.77a23.17,23.17,0,0,1,4.62-2.1,57.72,57.72,0,0,1,6-1.17" transform="translate(-214.7 -21.66)"/></g><g id="g60"><path id="path62" class="cls-4" d="M1657.51,665.67a24.88,24.88,0,0,1-9.38-1.62c-2.57-.93-5.07-2-7.63-3-1.91-.72-5.5,1-5.71,2.75-.24,2-.12,4.11-.35,6.16-.41,3.81-2.74,6.6-6.81,8.34a9.46,9.46,0,0,1-6.12.66c-2.35-.58-4.71-1.19-7-2a88.91,88.91,0,0,0-16-4.31,41,41,0,0,1-17.8-7.27c-6.16-4.44-13.09-7.93-20.14-11.26a50.81,50.81,0,0,0-13.71-4.41,74.26,74.26,0,0,1-23.33-7.76,55.69,55.69,0,0,0-24.87-6.44c-3.19-.09-6.27-.39-9.06-1.92-4.57-2.48-6.45-6.06-5.69-10.57,1-5.72,4.57-9.86,10.63-12.36a98.74,98.74,0,0,0,13.71-6.55c4.72-2.89,9.68-2.84,15-.87,6.4,2.39,13,4.51,19.44,6.78q28.68,10,57.34,20.08c7.11,2.51,14.12,5.21,21.51,7.17a57.87,57.87,0,0,1,7.63,3c6.9,2.9,13.74,5.92,20.69,8.75a35.91,35.91,0,0,1,8.88,4.67,29,29,0,0,1,4.14,4c1.29,1.51,1.68,3.31.52,5a6.61,6.61,0,0,1-5,2.93l-.87,0" transform="translate(-214.7 -21.66)"/></g><g id="g64"><path id="path66" class="cls-4" d="M927.6,783.71a12.26,12.26,0,0,1-.69,2.67c-.83,1.63-1.9,3.18-2.78,4.77a23.76,23.76,0,0,0-3.09,9.34c-.39,4.42-.94,8.82-1.22,13.24A59,59,0,0,1,917.93,826a75.75,75.75,0,0,0-2.33,10.43,44.52,44.52,0,0,1-3,12.08,16.54,16.54,0,0,0-1.45,5.16c-.64,7.65-2.45,15.21-2.33,22.92.05,3.82.88,33.56,3,39.37,2.62,7.09,2.54,14.58,1.71,21.95-.89,7.93-2.15,15.82-3.2,23.74a11.82,11.82,0,0,1-3.8,7.16,55,55,0,0,1-12.08,8.49,6,6,0,0,1-6,.11c-2.21-1.28-3.34-3.08-2.83-5.31.87-3.76,2-7.47,2.91-11.24A60.58,60.58,0,0,0,890,953c.26-2.53-3.37-39.23-1.7-71.57,1.58-30.57,15.85-73.49,16.11-77.58.32-5,.93-10,1.36-15a13.53,13.53,0,0,1,5.9-10c4.83-3.55,12.31-2.42,15.21,2.43a10.37,10.37,0,0,1,.77,2.47" transform="translate(-214.7 -21.66)"/></g><g id="g68"><path id="path70" class="cls-4" d="M1197.68,455.57c0,2.66,0,5.32,0,8-.1,5-.24,10-1.56,15-1.16,4.32-1.78,8.73-2.53,13.11a22.13,22.13,0,0,1-2.87,7.55c-1.88,3.22-5.39,4.59-9.59,3.86a39.18,39.18,0,0,1-4.1-.85c-3.16-.92-6.23-.35-9.35.14-6.41,1-10.51-2.41-12.06-6.51a66.48,66.48,0,0,1-2.32-8.62c-.33-1.44-.34-2.94-.53-4.4a87.4,87.4,0,0,0-6-23.31c-1.19-2.76-1.74-5.71-2.71-8.54a13.13,13.13,0,0,1,1.45-12,30.35,30.35,0,0,0,4.9-14.31,16.33,16.33,0,0,1,2.86-7.54c2.24-3.35,4.32-6.77,6.6-10.09a17.12,17.12,0,0,1,8.51-6.38,10.12,10.12,0,0,1,8.1.37,14.6,14.6,0,0,1,6.9,6.49c2,3.78,4,7.54,5.66,11.44,2,4.72,3.79,9.5,6.59,13.95a14.34,14.34,0,0,1,2,8.58c-.19,4.72-.29,9.44-.43,14.16Z" transform="translate(-214.7 -21.66)"/></g><g id="g72"><path id="path74" class="cls-4" d="M352.88,288.3a7.53,7.53,0,0,1,2.27-5.56,48.5,48.5,0,0,1,4.35-3.84c3.75-2.8,5-6.26,4.34-10.36-.52-3.21-1.06-6.42-1.36-9.66-.33-3.45,1.2-6.35,4.32-8.64s7.77-2.13,10.39.46a19,19,0,0,1,3.39,4.43,30.48,30.48,0,0,1,3.33,12.92c.35,7.21,2.68,13.93,6,20.52,1.78,3.53,3.39,7.12,5.15,10.65a36.6,36.6,0,0,0,13.62,15.47,48.62,48.62,0,0,1,9.68,8.11,97.26,97.26,0,0,0,20.29,16.64,90.06,90.06,0,0,1,19.74,15.88c2.13,2.33,4.84,4.28,7.23,6.45a23.33,23.33,0,0,1,3.37,3.37,7.16,7.16,0,0,1,1,7.61,13.08,13.08,0,0,1-6.46,6.75,7.69,7.69,0,0,1-7,.07,26.7,26.7,0,0,1-5.6-3.94c-1.9-1.73-3.38-3.77-5.18-5.59A27.8,27.8,0,0,0,433,362.37a43.29,43.29,0,0,1-23.31-15.84,105.65,105.65,0,0,0-12.47-13.14,89.55,89.55,0,0,1-11.34-12.74c-6.44-8.51-14-16.26-24.18-21.89a43.62,43.62,0,0,1-6.36-4.59,7.15,7.15,0,0,1-2.49-5.87" transform="translate(-214.7 -21.66)"/></g><g id="g76"><path id="path78" class="cls-4" d="M288.23,573.16A29.76,29.76,0,0,0,300,572a60.7,60.7,0,0,1,7.11-1.67c5.25-.89,10.45-1,15.48,1a40,40,0,0,0,18.5,2.54c2.44-.18,4.92-.18,7.38-.19A15.09,15.09,0,0,1,358,577c4.37,3.4,6.71,7.52,6,12.65-.5,3.51-1,7-1.49,10.53a8.78,8.78,0,0,1-.59,1.7c-1,2.62-4.74,4.1-7.68,3a44.2,44.2,0,0,1-4.66-2.06c-9.07-4.72-19.17-5.37-29.45-5.3-1.75,0-3.5.33-5.25.34a24.2,24.2,0,0,0-12.84,3.41,21.5,21.5,0,0,1-9.82,2.88,43,43,0,0,0-12.05,3.05c-4.48,1.7-9.11,3.1-13.72,4.53a13,13,0,0,1-10.08-1.19,17.26,17.26,0,0,1-6.51-5.68c-3.75-5.45-2.63-11.17,3.07-15.1a25.6,25.6,0,0,1,4.39-2.44,40.8,40.8,0,0,0,11.56-7.59c1-.88,2-1.67,3-2.46a20.67,20.67,0,0,1,12.49-4.1h3.81" transform="translate(-214.7 -21.66)"/></g><g id="g80"><path id="path82" class="cls-4" d="M972.05,579.54l.21-.35a8.88,8.88,0,0,1,1.14-1.67,156.81,156.81,0,0,1,18.44-18,49.76,49.76,0,0,1,10.11-6.34,26.84,26.84,0,0,1,11.78-2.55h.67a29.91,29.91,0,0,1,16.45,5.21,11.88,11.88,0,0,1,1.94,1.66l.13.14a6.69,6.69,0,0,1,1.65,6.4,8,8,0,0,1-4.66,5.32,26.62,26.62,0,0,1-4.65,1.56,30.24,30.24,0,0,1-3.19.49c-.77.1-1.49.18-2.15.31a76.32,76.32,0,0,0-15.94,4.76l-4.44,2.75-5.7,3.25c-2.23,1.6-4.55,3.11-6.58,4.43a21.34,21.34,0,0,1-4.49,2.24,11.49,11.49,0,0,1-3.67.64,9,9,0,0,1-5-1.49,6.58,6.58,0,0,1-2-8.76m122.82,57.27a47.76,47.76,0,0,0-13.47-9.8,9.64,9.64,0,0,0-7.14-.45c-2.63.82-5.28,1.61-7.93,2.4a287.74,287.74,0,0,1-72.22,11.61,45.36,45.36,0,0,1-12.49-1.24c-6.59-1.6-10.52-6.17-9.87-12a5.87,5.87,0,0,1,1.6-3.16,16.34,16.34,0,0,1,3.9-2.93A106.45,106.45,0,0,1,993,614.11a269.57,269.57,0,0,1,29.87-8.66c9.82-2.28,19.79-4,29.79-5.7,10.21-1.73,18-6.35,21.23-15.31a9.87,9.87,0,0,0-.1-7.78c-3-6.63-5.74-13.31-8.74-19.93a34,34,0,0,0-4.06-7.18,119.3,119.3,0,0,0-18-18.44c-6.15-5-13.65-7.17-22.12-6.8-6.69.3-13.44.87-19.56,3.28-9.84,3.87-20,7.11-28.94,12.57a249.54,249.54,0,0,0-21.76,15.37,54.18,54.18,0,0,0-6.35,5.92c-14.13,14.9-20.55,32-20.9,50.92a51.55,51.55,0,0,0,2.09,15.84c5.82,22.17,19.94,39.4,43.41,51A32.55,32.55,0,0,0,987,682.58c4.19-.42,8.37-1,12.49-1.72,10.64-1.94,21.2-4.26,31.89-6a93.41,93.41,0,0,0,31.74-11.45c6.13-3.5,12.18-6.82,19.38-8.77s11.15-6.94,13.43-12.8a4.62,4.62,0,0,0-1.07-5.05" transform="translate(-214.7 -21.66)"/></g><g id="g84"><path id="path86" class="cls-4" d="M1207.35,632.89a70,70,0,0,1,7.87,9.67c13.64,12.79,29.42,20.68,46.33,22.06,42.89-2.79,76.64-32,76.64-67.65a56.83,56.83,0,0,0-6.19-25.7c-.35-.34-.69-.69-1-1a27.58,27.58,0,0,1-6.37-8.07c-1.87-3.81-3.48-7.71-5.24-11.55-1.65-3.58-3.28-7.15-5-10.69-3.11-6.3-7.73-11.86-12-17.62-3.38-4.54-6.86-8.9-12-12.22a11.09,11.09,0,0,1-2.2-1.88,6.87,6.87,0,0,1-1.81-6.68,16.75,16.75,0,0,1,6.33-9,7.64,7.64,0,0,1,7.85-.23c1.67,1.07,3.18,2.3,4.71,3.51a71.94,71.94,0,0,0,6.11,4.86c7.54,4.75,10.82,4,16.28-1a54,54,0,0,0,14.72-23.21c1.77-5.24-.78-8.39-7.65-9-4.08-.34-7.47-1.42-10.21-4-4.38-4-10.2-6.2-15.83-8.59a19.69,19.69,0,0,0-14.29-.42c-9,3-16.82,7.39-22.82,13.79-5,5.33-9.67,10.87-14.38,16.38a40.9,40.9,0,0,0-4.32,6.06c-2.78,4.77-5.61,9.55-7.93,14.47a64,64,0,0,0-4.19,11.85c-1.44,5.76,0,11.18,4.62,15.73,2.75,2.67,5.7,5.21,8.74,7.64a67.43,67.43,0,0,0,6.58,4.42,37.4,37.4,0,0,1,12.18,12,114.07,114.07,0,0,0,6.83,10c4.08,5.31,6.13,11.23,8,17.51,1.29,6.59,1,13.3-3.24,19.49-3.47,5.11-7.16,10.14-10.89,15.14-4.07,5.45-10.27,7.85-17.71,8.17-5,.21-9.59-3.65-9.29-7.84a37.07,37.07,0,0,1,5-17.06,34.48,34.48,0,0,0,3.52-7.36c1.26-3.87-1.15-7.93-5.35-9.64a12.37,12.37,0,0,0-7.16-.88c-5.45,1.15-10.86,2.41-16.28,3.66a6.6,6.6,0,0,0-1.9.74c-6.11,3.66-11.49,8-13.9,14a65.74,65.74,0,0,1-6.6,13c-2.85,4.19-2.53,8.49.08,12.68a25.85,25.85,0,0,0,3.4,4.45" transform="translate(-214.7 -21.66)"/></g></g></svg>