<?xml version="1.0" encoding="utf-8"?>
<!-- Generator: Adobe Illustrator 26.0.2, SVG Export Plug-In . SVG Version: 6.00 Build 0)  -->
<svg version="1.1" id="Layer_1" xmlns="http://www.w3.org/2000/svg" xmlns:xlink="http://www.w3.org/1999/xlink" x="0px" y="0px"
	 viewBox="0 0 595.28 841.89" style="enable-background:new 0 0 595.28 841.89;" xml:space="preserve">
<style type="text/css">
	.st0{fill:#534A2A;}
	.st1{fill:#E83C38;}
	.st2{fill:#48C1ED;}
	.st3{fill:#E52427;}
	.st4{fill:#6CC5D4;}
</style>
<g>
	<g>
		<path class="st0" d="M543.78,327.64c-1.45-0.18-2.89-0.37-4.34-0.59c1.71,0.25,3.42,0.5,5.11,0.75
			c-16.81-2.49-33.23-7.47-48.86-14.61c1.54,0.7,3.06,1.4,4.6,2.11c-15.97-7.37-31.01-16.95-44.75-28.45
			c1.29,1.09,2.6,2.17,3.9,3.26c-13.21-11.15-25.13-24-35.35-38.36c1,1.4,2,2.82,3,4.23c-9.36-13.24-17.23-27.66-23.24-43.04
			c0.65,1.67,1.29,3.33,1.94,5c-8.31-21.55-12.3-44.7-21.8-65.77c-9.78-21.71-27.58-39.85-49.57-45.73
			c-13.75-3.68-27.86-2.21-40.37,5.13c-5.51,3.23-10.1,11.08-9.53,18.04c4.88,60.29,9.76,120.58,14.64,180.86
			c2.45,30.14,4.88,60.29,7.33,90.43c2.28,28.2,4.87,56.38,6.76,84.61c1.65,24.69,2.23,49.63-0.74,74.23
			c0.23-1.86,0.46-3.71,0.69-5.55c-1.82,14.58-4.93,28.97-10.16,42.57c0.65-1.67,1.29-3.33,1.94-5
			c-3.59,9.18-8.11,17.87-13.72,25.77c1-1.4,2-2.82,3-4.23c-4.99,6.94-10.73,13.15-17.15,18.55c1.29-1.09,2.6-2.17,3.9-3.26
			c-6.45,5.33-13.49,9.69-20.94,13.14c1.54-0.7,3.06-1.4,4.6-2.11c-9.21,4.18-18.86,6.9-28.73,8.39c1.71-0.25,3.42-0.5,5.11-0.75
			c-11.83,1.7-23.81,1.62-35.63-0.05c1.71,0.25,3.42,0.5,5.11,0.75c-12.2-1.79-24.1-5.27-35.45-10.41c1.54,0.7,3.06,1.4,4.6,2.11
			c-11.56-5.32-22.42-12.25-32.4-20.54c1.29,1.09,2.6,2.17,3.9,3.26c-10.59-8.89-20.08-19.22-28.32-30.71c1,1.4,2,2.82,3,4.23
			c-8.41-11.83-15.41-24.76-20.82-38.51c0.65,1.67,1.29,3.33,1.94,5c-5.11-13.19-8.7-27.03-10.52-41.2
			c0.23,1.86,0.46,3.71,0.69,5.55c-1.59-12.94-1.68-26.03-0.08-38.96c-0.23,1.86-0.46,3.71-0.69,5.55c1.42-11.03,4-21.8,7.99-32.08
			c-0.65,1.67-1.29,3.33-1.94,5c3.85-9.8,8.81-19.01,14.75-27.46c-1,1.4-2,2.82-3,4.23c5.51-7.76,11.83-14.78,18.94-20.81
			c-1.29,1.09-2.6,2.17-3.9,3.26c6.07-5.06,12.63-9.36,19.68-12.59c-1.54,0.7-3.06,1.4-4.6,2.11c5.94-2.66,12.13-4.53,18.51-5.5
			c-1.71,0.25-3.42,0.5-5.11,0.75c5.36-0.75,10.75-0.82,16.12-0.25c4.62,0.5,10.46-2.69,13.61-6.12c3.34-3.63,5.85-9.58,5.64-14.78
			c-0.22-5.4-1.86-11.02-5.64-14.78c-3.97-3.96-8.27-5.55-13.61-6.12c-33.18-3.58-65.86,16.33-85.98,44.04
			c-10.84,14.93-19.29,31.17-24.45,49.43c-4.39,15.49-6.28,32.24-5.94,48.44c0.69,32.38,9.95,64.57,25.67,92.05
			c15.89,27.8,38.34,51.77,64.96,67.29c13.67,7.97,28.52,14.09,43.78,17.32c9.3,1.97,18.82,3.24,28.29,3.51
			c9.38,0.25,18.65-0.74,27.92-2.27c34.05-5.62,64.49-27.11,82.52-58.99c16.48-29.1,21.6-64.27,22.4-97.9
			c0.86-36.2-3.34-72.44-6.25-108.43c-3.53-43.63-7.07-87.24-10.59-130.86c-3.51-43.44-7.04-86.89-10.55-130.33
			c-0.86-10.63-1.72-21.28-2.59-31.91c-3.17,6.02-6.36,12.03-9.53,18.04c1.02-0.59,2.03-1.14,3.1-1.62c-1.54,0.7-3.06,1.4-4.6,2.11
			c2.71-1.19,5.5-1.99,8.39-2.41c-1.71,0.25-3.42,0.5-5.11,0.75c3.13-0.4,6.24-0.35,9.36,0.07c-1.71-0.25-3.42-0.5-5.11-0.75
			c4.11,0.62,8.08,1.86,11.92,3.58c-1.54-0.7-3.06-1.4-4.6-2.11c4.57,2.12,8.82,4.88,12.77,8.19c-1.29-1.09-2.6-2.17-3.9-3.26
			c3.68,3.16,7.01,6.74,9.92,10.76c-1-1.4-2-2.82-3-4.23c4.43,6.32,7.85,13.39,10.7,20.68c-0.65-1.67-1.29-3.33-1.94-5
			c3.74,9.73,6.48,19.84,9.33,29.9c3,10.63,6.42,20.96,10.47,31.17c7.07,17.77,16.77,33.83,27.89,48.91
			c21.45,29.07,50.27,52.45,81.81,67.04c10.01,4.63,20.13,8.76,30.64,11.78c10.59,3.04,21.39,4.93,32.27,6.25
			c4.57,0.55,10.49-2.74,13.61-6.12c3.34-3.63,5.85-9.58,5.64-14.78c-0.22-5.4-1.86-11.02-5.64-14.78
			C553.39,329.78,549.14,328.29,543.78,327.64L543.78,327.64z"/>
	</g>
</g>
<g>
	<g>
		<path class="st0" d="M299.18,121.62c14.98,2.98,29.95,5.95,44.93,8.94c1.71-13.67,3.42-27.36,5.11-41.04
			c-19.29,0.7-38.59,1.4-57.9,2.11c-5.04,0.18-10.01,2.21-13.61,6.12c-3.34,3.63-5.85,9.58-5.64,14.78
			c0.22,5.4,1.86,11.02,5.64,14.78c3.7,3.68,8.45,6.3,13.61,6.12c19.29-0.7,38.59-1.4,57.9-2.11c9.62-0.35,17.62-7.69,18.91-18.12
			c0.55-4.45,0.03-9.43-2.28-13.32c-2.59-4.35-6.64-8.64-11.5-9.59c-14.98-2.98-29.95-5.95-44.93-8.94
			c-5.19-1.04-10.15-0.87-14.83,2.11c-3.99,2.54-7.81,7.51-8.84,12.49c-1.12,5.35-0.88,11.35,1.94,16.1
			C290.25,116.38,294.3,120.66,299.18,121.62L299.18,121.62z"/>
	</g>
</g>
<g>
	<g>
		<path class="st1" d="M184.56,384.37c0.68,6.4,1.36,12.8,2.03,19.21c-0.09,2.88,0.45,5.57,1.66,8.06c0.77,2.59,2.11,4.83,3.97,6.72
			c1.74,2.04,3.8,3.48,6.19,4.31c2.29,1.3,4.77,1.91,7.42,1.81c1.71-0.25,3.42-0.5,5.11-0.75c3.26-0.99,6.1-2.79,8.5-5.37
			c1-1.4,2-2.82,3-4.23c1.74-3.26,2.62-6.77,2.63-10.55c-0.68-6.4-1.36-12.8-2.03-19.21c0.09-2.88-0.45-5.57-1.66-8.06
			c-0.77-2.59-2.11-4.83-3.97-6.72c-1.74-2.04-3.8-3.48-6.19-4.31c-2.29-1.3-4.76-1.91-7.42-1.81c-1.71,0.25-3.42,0.5-5.11,0.75
			c-3.26,0.99-6.1,2.79-8.5,5.37c-1,1.4-2,2.82-3,4.23C185.45,377.08,184.58,380.61,184.56,384.37L184.56,384.37z"/>
	</g>
</g>
<g>
	<g>
		<path class="st1" d="M193.26,412.4c-3.71-1.67-7.55-2.76-11.52-3.38c-5.33-0.84-10.55-1.5-15.92-1.04
			c-11.06,0.99-21.23,4.03-31.09,9.61c-18.12,10.26-30.93,29.2-36.96,50.13c-5.82,20.21-4.93,42.89,1.4,62.83
			c6.73,21.24,18.23,40.1,32.41,56.36c14.47,16.58,32.09,30.49,51.11,40.25c4.77,2.44,9.58,3.68,14.83,2.11
			c4.47-1.34,9.3-5.08,11.5-9.59c2.36-4.85,3.54-10.73,1.94-16.1c-1.46-4.91-4.37-10.2-8.84-12.49
			c-10.38-5.32-20.19-11.82-29.29-19.41c1.29,1.09,2.6,2.17,3.9,3.26c-10.22-8.59-19.48-18.49-27.42-29.55c1,1.4,2,2.82,3,4.23
			c-6.27-8.81-11.64-18.34-15.66-28.58c0.65,1.67,1.29,3.33,1.94,5c-2.99-7.77-5.14-15.88-6.24-24.24c0.23,1.86,0.46,3.71,0.69,5.55
			c-0.86-7.1-0.89-14.27-0.05-21.4c-0.23,1.86-0.46,3.71-0.69,5.55c0.85-6.65,2.43-13.14,4.84-19.32c-0.65,1.67-1.29,3.33-1.94,5
			c2.05-5.16,4.63-10.03,7.78-14.51c-1,1.4-2,2.82-3,4.23c2.88-4.03,6.16-7.64,9.87-10.78c-1.29,1.09-2.6,2.17-3.9,3.26
			c3.82-3.16,7.96-5.75,12.36-7.81c-1.54,0.7-3.06,1.4-4.6,2.11c4.62-2.09,9.42-3.54,14.37-4.3c-1.71,0.25-3.42,0.5-5.11,0.75
			c4.54-0.64,9.12-0.69,13.66-0.05c-1.71-0.25-3.42-0.5-5.11-0.75c3.97,0.6,7.81,1.72,11.52,3.38c4.28,1.92,11.03,0.32,14.83-2.11
			c3.99-2.54,7.81-7.51,8.84-12.49c1.12-5.35,0.88-11.35-1.94-16.1c-1-1.4-2-2.82-3-4.23C199.36,415.17,196.53,413.39,193.26,412.4
			L193.26,412.4z"/>
	</g>
</g>
<g>
	<g>
		<path class="st1" d="M107.63,699.35c28.47,21.33,63.72,31.64,98.12,31.94c17.32,0.15,34.92-2.31,51.65-7.19
			c16.52-4.83,32.77-12.22,47.33-22c15.17-10.18,28.96-23.03,40.33-37.98c6.42-8.44,12.41-17.28,17.58-26.68
			c5.31-9.63,9.64-19.72,13.64-30.07c14.54-37.58,19.6-79.26,18.09-119.8c-1.8-48.26-11.93-95.61-23.05-142.18
			c-1.31-5.48-2.63-10.98-3.96-16.46c-1.22-5.05-4.71-9.86-8.84-12.49s-10.21-3.73-14.83-2.11c-4.65,1.64-9.15,4.76-11.5,9.59
			c-2.43,5.01-3.28,10.53-1.94,16.1c7.16,29.65,14.32,59.36,19.42,89.53c1.46,8.59,2.74,17.23,3.8,25.89
			c-0.23-1.86-0.46-3.71-0.69-5.55c3.65,29.75,4.73,59.96,1.05,89.76c0.23-1.86,0.46-3.71,0.69-5.55
			c-2.68,21.33-7.65,42.31-15.37,62.15c0.65-1.67,1.29-3.33,1.94-5c-5.99,15.26-13.57,29.74-22.88,42.91c1-1.4,2-2.82,3-4.23
			c-7.9,11.07-16.95,21.16-27.13,29.77c1.29-1.09,2.6-2.17,3.9-3.26c-10.49,8.79-22.02,15.98-34.21,21.56
			c1.54-0.7,3.06-1.4,4.6-2.11c-13.86,6.28-28.44,10.5-43.31,12.67c1.71-0.25,3.42-0.5,5.11-0.75c-15.29,2.19-30.8,2.21-46.1-0.02
			c1.71,0.25,3.42,0.5,5.11,0.75c-14.09-2.09-27.92-6.08-41.02-12.08c1.54,0.7,3.06,1.4,4.6,2.11c-9.02-4.18-17.65-9.28-25.73-15.33
			c-3.93-2.94-10.38-3.44-14.83-2.11c-4.47,1.34-9.3,5.08-11.5,9.59c-2.36,4.85-3.54,10.73-1.94,16.1
			C100.4,692.26,103.32,696.12,107.63,699.35L107.63,699.35z"/>
	</g>
</g>
<g>
	<g>
		<path class="st1" d="M372.65,317.29c1.25-9.58,2.22-19.12,2.23-28.8c0.02-9.56-0.91-18.97-2.11-28.43
			c-2.25-17.52-7.19-34.05-13.77-50.2c-1.74-4.3-7.42-8.59-11.5-9.59c-4.31-1.07-8.45-0.82-12.53,1.05
			c-8.92,4.08-13.44,14.43-11.15,24.65c8.52,37.96,27.01,73.25,51.94,101.31c26.1,29.4,59.85,50.58,96.04,61.53
			c20.65,6.25,42.44,9.26,63.87,8.68c5.02-0.13,10.04-2.24,13.61-6.12c3.34-3.63,5.85-9.58,5.64-14.78
			c-0.22-5.4-1.86-11.02-5.64-14.78c-3.71-3.69-8.44-6.27-13.61-6.12c-10.52,0.28-21.03-0.33-31.46-1.84
			c1.71,0.25,3.42,0.5,5.11,0.75c-17.77-2.62-35.15-7.77-51.69-15.33c1.54,0.7,3.06,1.4,4.6,2.11
			c-15.15-6.99-29.46-15.96-42.51-26.84c1.29,1.09,2.6,2.17,3.9,3.26c-12.83-10.76-24.31-23.27-34.25-37.19c1,1.4,2,2.82,3,4.23
			c-9.79-13.84-17.97-28.95-24.25-45.01c0.65,1.67,1.29,3.33,1.94,5c-3.76-9.71-6.82-19.72-9.12-29.97
			c-11.73,5.37-23.45,10.73-35.18,16.1c0.37,0.92,0.74,1.86,1.11,2.77c-0.65-1.67-1.29-3.33-1.94-5
			c5.3,13.69,8.92,28.08,10.76,42.81c-0.23-1.86-0.46-3.71-0.69-5.55c1.79,14.69,1.82,29.57,0.03,44.26
			c0.23-1.86,0.46-3.71,0.69-5.55c-0.06,0.5-0.12,0.99-0.18,1.49c-0.8,2.77-0.92,5.55-0.34,8.32c0.12,2.77,0.88,5.37,2.28,7.77
			c2.34,4.33,6.91,8.47,11.5,9.59c4.93,1.22,10.46,0.95,14.83-2.11C367.71,327.04,371.97,322.52,372.65,317.29L372.65,317.29z"/>
	</g>
</g>
<g>
	<g>
		<path class="st1" d="M588.08,375.83c-0.52-17.78-1.06-35.59-1.59-53.37c-0.17-5.47-2.03-10.86-5.64-14.78
			c-3.34-3.63-8.82-6.35-13.61-6.12c-4.97,0.23-10.15,2.02-13.61,6.12c-3.39,4.01-5.81,9.18-5.64,14.78
			c0.52,17.78,1.06,35.59,1.59,53.37c0.17,5.47,2.03,10.86,5.64,14.78c3.34,3.63,8.82,6.35,13.61,6.12
			c4.97-0.23,10.15-2.02,13.61-6.12C585.84,386.59,588.25,381.41,588.08,375.83L588.08,375.83z"/>
	</g>
</g>
<g>
	<g>
		<path class="st1" d="M411.81,122.01c-6.01-14.99-12.03-29.97-18.03-44.96c-1.8-4.48-7.38-8.37-11.5-9.59
			c-4.6-1.37-10.75-0.75-14.83,2.11c-4.11,2.87-7.73,7.15-8.84,12.49c-0.23,1.86-0.46,3.71-0.69,5.55
			c0.02,3.78,0.89,7.29,2.63,10.55c6.01,14.99,12.03,29.97,18.03,44.96c1.8,4.48,7.38,8.37,11.5,9.59
			c4.6,1.37,10.75,0.75,14.83-2.11c4.11-2.87,7.73-7.15,8.84-12.49c0.23-1.86,0.46-3.71,0.69-5.55
			C414.42,128.78,413.55,125.27,411.81,122.01L411.81,122.01z"/>
	</g>
</g>
<g>
	<g>
		<path class="st2" d="M178.17,329.04c-26.45-1.17-53.03,6.6-76.16,20.38c-23.17,13.79-42.82,34.18-56.99,58.35
			c-14.94,25.47-22.94,54.73-25.82,84.6c-1.28,13.37-1.25,26.89,0.09,40.25c1.56,15.53,4.19,30.84,8.45,45.78
			c8.07,28.27,20.56,55.16,36.17,79.38c1.85,2.87,3.76,5.72,5.7,8.52c1.22,2.44,2.86,4.4,4.96,5.87c1.86,1.84,4.03,3.09,6.54,3.74
			c4.6,1.37,10.75,0.75,14.83-2.11c4.11-2.87,7.73-7.15,8.84-12.49c1.08-5.11,1.09-11.7-1.94-16.1
			c-12.95-18.75-24.02-39.03-32.44-60.63c0.65,1.67,1.29,3.33,1.94,5c-7.08-18.32-12.16-37.51-14.66-57.2
			c0.23,1.86,0.46,3.71,0.69,5.55c-2.09-16.93-2.16-34.08-0.09-51.03c-0.23,1.86-0.46,3.71-0.69,5.55
			c1.94-15.49,5.67-30.66,11.26-45.08c-0.65,1.67-1.29,3.33-1.94,5c4.91-12.5,11.19-24.32,18.85-35.08c-1,1.4-2,2.82-3,4.23
			c7.1-9.9,15.35-18.74,24.48-26.43c-1.29,1.09-2.6,2.17-3.9,3.26c9.39-7.82,19.65-14.34,30.53-19.39c-1.54,0.7-3.06,1.4-4.6,2.11
			c10.55-4.81,21.59-8.19,32.94-9.9c-1.71,0.25-3.42,0.5-5.11,0.75c6.99-1.02,14.03-1.39,21.06-1.07c4.8,0.22,10.26-2.47,13.61-6.12
			c3.34-3.63,5.85-9.58,5.64-14.78C196.94,338.24,188.96,329.51,178.17,329.04L178.17,329.04z"/>
	</g>
</g>
<g>
	<g>
		<path class="st2" d="M195.51,624.03c15.69,8.83,33.34,10.6,50.43,5.87c15.46-4.28,29.95-13.82,41.24-25.96
			c25.9-27.88,31.43-69.05,30.46-106.96c-0.49-19.31-2.11-38.6-3.37-57.85c-1.36-20.79-2.69-41.57-4.05-62.36
			c-2.69-41.4-5.37-82.82-8.07-124.23c-2.69-41.4-5.37-82.82-8.07-124.23c-0.32-5.08-0.66-10.15-0.99-15.23
			c-0.37-5.58-1.89-10.71-5.64-14.78c-3.34-3.63-8.82-6.35-13.61-6.12c-4.97,0.23-10.15,2.02-13.61,6.12
			c-3.31,3.93-5.99,9.28-5.64,14.78c3.62,55.64,7.22,111.31,10.84,166.95s7.22,111.31,10.84,166.95c1.83,28.15,4.9,56.81,1.54,84.96
			c0.23-1.86,0.46-3.71,0.69-5.55c-1.36,10.86-3.76,21.53-7.68,31.66c0.65-1.67,1.29-3.33,1.94-5c-2.49,6.28-5.53,12.2-9.36,17.63
			c1-1.4,2-2.82,3-4.23c-3.88,5.42-8.36,10.25-13.33,14.49c1.29-1.09,2.6-2.17,3.9-3.26c-5.17,4.33-10.78,7.94-16.78,10.7
			c1.54-0.7,3.06-1.4,4.6-2.11c-5.13,2.31-10.44,3.94-15.94,4.76c1.71-0.25,3.42-0.5,5.11-0.75c-4.59,0.64-9.18,0.67-13.77,0
			c1.71,0.25,3.42,0.5,5.11,0.75c-4-0.64-7.87-1.79-11.61-3.48c1.54,0.7,3.06,1.4,4.6,2.11c-1.14-0.53-2.25-1.12-3.36-1.74
			c-4.57-2.57-9.76-3.63-14.83-2.11c-4.47,1.34-9.3,5.08-11.5,9.59c-2.36,4.85-3.54,10.73-1.94,16.1
			C188.16,616.58,191.04,621.51,195.51,624.03L195.51,624.03z"/>
	</g>
</g>
<g>
	<g>
		<path class="st2" d="M188.87,636.13c5.36,4.33,11.7,7.37,18.05,9.53c6.44,2.17,13.43,3.19,20.16,3.23
			c6.78,0.05,13.77-0.97,20.29-2.96c6.41-1.94,12.83-4.86,18.45-8.76c7.73-5.37,13.69-11.83,19-19.87
			c2.76-4.18,3.14-11.35,1.94-16.1c-1.23-4.85-4.68-10.1-8.84-12.49c-4.47-2.56-9.89-3.84-14.83-2.11c-1.54,0.7-3.06,1.4-4.6,2.11
			c-2.89,1.86-5.19,4.36-6.9,7.49c-0.29,0.43-0.59,0.87-0.88,1.29c1-1.4,2-2.82,3-4.23c-2.31,3.24-5,6.12-7.99,8.64
			c1.29-1.09,2.6-2.17,3.9-3.26c-3.31,2.71-6.9,4.93-10.7,6.7c1.54-0.7,3.06-1.4,4.6-2.11c-4.5,2.02-9.19,3.39-14.01,4.11
			c1.71-0.25,3.42-0.5,5.11-0.75c-4.84,0.67-9.7,0.67-14.55-0.03c1.71,0.25,3.42,0.5,5.11,0.75c-4.3-0.67-8.47-1.89-12.46-3.71
			c1.54,0.7,3.06,1.4,4.6,2.11c-3.2-1.5-6.22-3.38-9.02-5.65c-3.74-3.03-10.53-3.39-14.83-2.11c-4.47,1.34-9.3,5.08-11.5,9.59
			c-2.36,4.85-3.54,10.73-1.94,16.1c0.65,1.67,1.29,3.33,1.94,5C183.67,631.79,185.98,634.28,188.87,636.13L188.87,636.13z"/>
	</g>
</g>
<g>
	<g>
		<path class="st3" d="M338,190.81c-0.48-6.65-0.94-13.32-1.42-19.97c-0.15-2.17-1.66-4.28-3.85-4.18c-1.96,0.1-4.02,1.84-3.85,4.18
			c0.48,6.65,0.94,13.32,1.42,19.97c0.15,2.17,1.66,4.28,3.85,4.18C336.11,194.89,338.17,193.13,338,190.81L338,190.81z"/>
	</g>
</g>
<g>
	<g>
		<path class="st3" d="M355.83,529.94c2.29-37.61,1.22-75.44-3.28-112.79c-1.28-10.58-2.79-21.13-4.57-31.62
			c-0.38-2.22-2.85-3.48-4.74-2.93c-2.16,0.64-3.06,2.91-2.69,5.15c6.21,36.42,9.12,73.48,8.72,110.52
			c-0.11,10.56-0.51,21.14-1.14,31.69c-0.14,2.26,1.86,4.18,3.85,4.18C354.19,534.12,355.7,532.2,355.83,529.94L355.83,529.94z"/>
	</g>
</g>
<g>
	<g>
		<path class="st3" d="M336.62,306.84c1.11-30.74,2.2-61.46,3.31-92.2c0.55-15.29,1.09-30.59,1.65-45.88
			c0.23-6.27,1.66-14.63-3.16-19.39c-3.94-3.91-9.9-2.96-13.87,0.33c-5.7,4.71-6.07,12.62-4.14,19.61
			c1.89,6.82,6.88,14.29,4.5,21.63c2.53,0.37,5.04,0.74,7.56,1.1c0.09-9.46,0.18-18.92,0.28-28.38c-2.57,0-5.13,0-7.7,0
			c0,21.91,0,43.83,0,65.72c0,5.38,7.7,5.38,7.7,0c0-23.13,0-46.27,0-69.38c0-5.38-7.7-5.38-7.7,0c0,23.13,0,46.27,0,69.38
			c2.57,0,5.13,0,7.7,0c0-21.91,0-43.83,0-65.72c0-5.38-7.65-5.38-7.7,0c-0.09,9.46-0.18,18.92-0.28,28.38
			c-0.05,4.9,6.16,5.42,7.56,1.1c2.08-6.39,0.25-13.05-2.05-19.04c-1.69-4.43-5-11.63-2.56-16.06c0.72-1.32,1.97-2.21,3.2-2.71
			c0.52-0.22,1.17-0.27,1.63-0.2c0.11,0.02,0.18,0,0.49,0.25c-0.23-0.18,0.32,0.35,0.43,0.5c1.22,1.94,0.65,5.25,0.57,7.44
			c-0.12,3.61-0.26,7.24-0.38,10.85c-1.02,28.23-2.03,56.46-3.03,84.7c-0.57,16-1.15,31.98-1.72,47.97
			C328.72,312.23,336.42,312.21,336.62,306.84L336.62,306.84z"/>
	</g>
</g>
<g>
	<g>
		<path class="st3" d="M303.87,175.97c18.45,97.93,87.78,180.11,174.8,211.36c11.47,4.13,25.75-4.76,28.41-17.52
			c2.89-13.81-3.85-26.43-16.14-30.84c-4.96-1.77-9.84-3.71-14.69-5.82c3.94,1.72-1.91-0.92-2.68-1.29
			c-2.71-1.34-5.39-2.72-8.05-4.16c-8.64-4.7-17-10-25.05-15.81c-2.17-1.57-4.31-3.18-6.42-4.81c-0.66-0.52-6.56-5.27-3.37-2.61
			c-3.83-3.19-7.55-6.59-11.16-10.06c-7.55-7.22-14.69-14.93-21.36-23.08c-3.46-4.23-6.84-8.56-10.01-13.04
			c2.34,3.29-1.39-2.12-1.76-2.67c-1.31-1.96-2.6-3.94-3.85-5.95c-5.88-9.34-11.21-19.07-15.94-29.17
			c-2.02-4.31-3.91-8.71-5.73-13.14c-1.09-2.72-1.19-2.96-0.28-0.7c-0.55-1.49-1.11-2.99-1.63-4.5c-0.8-2.26-1.57-4.53-2.29-6.82
			c-3.45-10.68-6.16-21.61-8.24-32.69c-2.49-13.27-16.97-20.93-28.41-17.52C307.28,148.9,301.36,162.64,303.87,175.97L303.87,175.97
			z"/>
	</g>
</g>
<g>
	<g>
		<path class="st3" d="M92.5,502.78c-1.17,66.49,40.25,127.74,97.96,148.6c11.47,4.15,25.75-4.78,28.41-17.52
			c2.89-13.84-3.85-26.41-16.14-30.84c-0.77-0.28-8.81-3.58-4.8-1.72c-2.69-1.25-5.33-2.69-7.91-4.2c-2.59-1.52-5.11-3.14-7.58-4.86
			c-0.66-0.45-7.61-5.77-4.28-3.03c-4.67-3.86-8.99-8.31-13.01-12.92c-2.03-2.32-3.94-4.75-5.84-7.2c-1.69-2.29-1.85-2.49-0.45-0.62
			c-0.66-0.97-1.29-1.94-1.92-2.94c-3.16-4.93-6.01-10.08-8.52-15.43c-0.37-0.79-3.9-9.29-2.25-4.91c-1.11-2.96-2.09-5.97-2.99-9.01
			c-1.79-6.07-3.14-12.29-4.05-18.59c0.75,5.25-0.28-4.25-0.32-5.23c-0.15-3.19-0.17-6.39-0.11-9.59
			c0.23-13.12-10.79-25.67-23.1-25.07C102.87,478.32,92.74,488.72,92.5,502.78L92.5,502.78z"/>
	</g>
</g>
<g>
	<g>
		<path class="st3" d="M56.46,611.86c10.79,40.38,34.01,75.03,65.73,99.04c34.72,26.28,77.67,34.4,119,28.03
			c12.36-1.91,19.14-18.99,16.14-30.84c-3.65-14.43-16.01-19.42-28.41-17.52c2.85-0.43-2.09,0.18-2.93,0.25
			c-2.17,0.2-4.33,0.35-6.5,0.43c-3.91,0.15-7.82,0.13-11.72-0.07c-8.48-0.43-11.93-0.95-20.91-3.33
			c-16.01-4.23-27.49-9.79-41.34-20.26c-1.29-0.97-2.59-1.97-3.83-3.01c2.51,2.07-1.37-1.29-1.79-1.67
			c-2.71-2.49-5.33-5.08-7.85-7.79c-2.8-3.01-5.5-6.13-8.07-9.38c-1.03-1.3-2.03-2.61-3.02-3.94c1.97,2.67-1.06-1.6-1.39-2.09
			c-4.34-6.62-8.21-13.61-11.55-20.88c-0.88-1.91-1.72-3.84-2.51-5.8c-1.71-4.2,1.63,5.27-0.82-2.31
			c-1.31-4.05-2.59-8.07-3.68-12.19c-3.48-13-16.28-21.13-28.41-17.52C60.65,584.58,52.98,598.81,56.46,611.86L56.46,611.86z"/>
	</g>
</g>
<g>
	<g>
		<path class="st3" d="M390.02,406.58c5.68-49.78-2.42-99.39-20.71-145.19c-4.96-12.42-21.76-15.24-31.6-8.99
			c-11.83,7.51-13.26,21.83-8.28,34.3c14.78,37.06,19.14,78.34,14.4,119.88c-1.49,13.07,11.69,25.62,23.1,25.07
			C380.72,430.99,388.42,420.57,390.02,406.58L390.02,406.58z"/>
	</g>
</g>
<g>
	<g>
		<path class="st3" d="M350.77,81.01c-3.53,23.33,1.65,45.8,17.29,62.9c8.53,9.33,24.25,9.96,32.66,0c8.48-10.03,9.1-25.51,0-35.45
			c-1.05-1.07-2.03-2.21-2.94-3.41c1.45,1.96,1.42,1.74-0.08-0.67c-2.26-4.46,0.2,2.81-1.15-2.56c-0.15-0.62-1.45-7.76-0.91-2.49
			c-0.12-1.25,0.48-10.23-0.32-4.98c1.96-12.89-3.08-27.61-16.14-30.84C368.06,60.73,352.86,67.17,350.77,81.01L350.77,81.01z"/>
	</g>
</g>
<g>
	<g>
		<path class="st4" d="M246.71,124.63c6.67,70.45,12.32,141.03,16.94,211.66c2.31,35.32,4.34,70.67,6.13,106.02
			c1.71,33.86,4.99,68.43,3.68,102.35c-0.35,9.24-0.71,13.12-3.1,22.03c-0.97,3.63-1.25,4.78-2.28,7.09
			c-0.65,1.45-1.4,2.89-2.17,4.28c0.05-0.07-3.33,5.23-2.06,3.51c1.51-2.09-1.51,1.77-1.85,2.16c-1.29,1.49-2.65,2.91-4.07,4.26
			c2.53-2.42-0.08,0.12-0.66,0.52c-1.57,1.07-3.16,2.07-4.76,3.06c-3.19,1.94,2.94-0.94-0.49,0.3c-1.71,0.62-3.43,1.15-5.2,1.57
			c1.11-0.27,4.16,0-0.26-0.1c-1.14-0.02-7.02-1-2.53-0.05c-11.83-2.52-25.5,3.64-28.41,17.52c-2.6,12.44,3.45,28.13,16.14,30.84
			c33.15,7.09,65.03-14.27,78.24-47.42c13.87-34.77,9.61-73.65,7.96-110.47c-3.43-76.82-8.1-153.58-13.98-230.22
			c-3.3-43.01-6.99-85.98-11.06-128.92c-1.23-13-9.75-25.72-23.1-25.07C258.35,100.11,245.38,110.66,246.71,124.63L246.71,124.63z"
			/>
	</g>
</g>
<g>
	<g>
		<path class="st4" d="M181.59,322.29c-56.37-12.27-110.05,20.74-139.94,71.91C12.33,444.39,3.85,509.5,8.3,567.83
			c2.69,35.15,9.76,69.62,22.03,102.31c4.7,12.54,15.37,21.4,28.41,17.52c10.95-3.26,20.86-18.22,16.14-30.84
			c-18.79-50.1-25.61-101.03-19.2-154.7c1.02-8.52,3.66-22.78,6.34-33.41c3.02-12,6.3-22.15,10.38-31.32
			c2.37-5.32,4.97-10.53,7.81-15.56c1.52-2.71,3.13-5.38,4.79-7.99c0.71-1.12,1.45-2.22,2.19-3.33c2.43-3.58-1.6,2.06,1-1.39
			c3.39-4.5,7.02-8.79,10.9-12.79c2.05-2.12,4.19-4.15,6.36-6.1c0.49-0.45,1.54-1.32,4.07-3.21c5.36-3.96,11.01-7.4,16.88-10.4
			c-0.08,0.03,3.56-1.62,1.68-0.8c-1.45,0.62,2.48-0.94,2.86-1.09c3.03-1.15,6.1-2.14,9.21-2.99c2.71-0.74,5.44-1.35,8.19-1.84
			c-1.06,0.18-3.8,0.32,0.95-0.07c1.59-0.13,3.17-0.25,4.76-0.32c2.77-0.1,5.56-0.07,8.33,0.1c0.51,0.03,5.4,0.48,2.88,0.18
			c-2.08-0.27,4.14,0.85,4.03,0.84c11.81,2.57,25.51-3.66,28.41-17.52C200.34,340.66,194.26,325.05,181.59,322.29L181.59,322.29z"/>
	</g>
</g>
</svg>
